<svg xmlns="http://www.w3.org/2000/svg" width="204" height="120" viewBox="0 0 204 120">
    <path data-name="Rectangle 4" style="fill:none" d="M0 0h204v120H0z"/>
    <g data-name="Group 39">
        <path data-name="Path 135" d="M141.445 136.992a161.587 161.587 0 0 1-37.137-13.221c-.954-.489-1.873-1.019-2.795-1.545a.953.953 0 0 0-1.393.6 49.047 49.047 0 0 0-1.266 18.9c.572 3.758-8.953 11.841-9.728 6.746-1.451-9.545.6-19.744 4.121-30a.937.937 0 0 0-.347-1.072 4.893 4.893 0 0 1-1.863-2.082c-1.207-3.09 2.373-7.567 5.712-9.7a17.529 17.529 0 0 1 1.7-.939.938.938 0 0 0 .446-.463c1.37-3.119 2.79-6.224 4.206-9.286 1.051-2.273 3.805-5.363 6.565-5.931 2.722-.56 3.024 1.79 2.086 3.809a702.719 702.719 0 0 0-2.667 5.8.949.949 0 0 0 1.239 1.262c11.261-4.907 23.218-11.519 31.1-20.581 3.92-4.507 4.749-9.652 1.49-13.216-3.335-3.643-9.333-4.445-15.084-3.844-13.751 1.429-27.821 8.6-40.445 16.365-2.071 1.271-4.782 2.155-5.032-.3-.227-2.224 2.35-5.689 4.691-7.128 11.183-6.875 22.739-13.036 34.856-16.459 9.376-2.657 20.3-4.047 27.276.584 7.333 4.868 6.683 14.016 1.269 22.336-5.629 8.655-15.555 16.145-24.739 21.932a127.131 127.131 0 0 1-14.55 7.885c-1.451.666-2.911 1.3-4.377 1.917-1.469.487-1.441.839-.121 1.7q2.142 1.257 4.355 2.444 5.516 2.958 11.434 5.472a160.221 160.221 0 0 0 25.563 8.3c4.902 1.174-2.491 10.654-6.565 9.715z" style="fill:#fff" transform="translate(-82.347 -30.109)"/>
        <path data-name="Path 136" d="M280.343 81.067c-1.14-2.175-4.552-.761-6.209.441-2.322 1.683-5.058 3.178-7.933 2.423a7.845 7.845 0 0 1-5.139-4.967c-2.259-5.487-.763-12.091.967-17.938a197.16 197.16 0 0 1 9.676-26.69c.888-1.921.7-4.372-2.132-4.22-2.76.148-5.717 2.881-6.712 5.044-2.514 5.468-4.489 11.1-6.461 16.7a147.316 147.316 0 0 0-5.254 16.849 17.3 17.3 0 0 1-1.159 3.9 32.445 32.445 0 0 1-1.669 3.3c-.313.58-.644 1.154-.969 1.731l-.117.21c-.033.061-.067.1-.128.191-.57.864-1.134 1.729-1.758 2.57a27.256 27.256 0 0 1-2.607 2.791c-2.048 1.531-5.025 3.063-7.761 3.029a6.54 6.54 0 0 1-2.919-.6 16.2 16.2 0 0 1-4-2.881c-.24-.231-.473-.474-.693-.723-.049-.085-.353-.492-.4-.562-.171-.264-.3-.55-.456-.818-.029-.064-.05-.134-.075-.2-1.325-2.344-3.107-2.192-5.156-.969a12.622 12.622 0 0 0-1.618 1.166 10.448 10.448 0 0 0-1.659 1.421 69.059 69.059 0 0 1-2.252 2.385c-.4.4-.82.8-1.231 1.192-.217.188-.431.377-.65.562-.785.661-1.6 1.287-2.435 1.9l-.144.1-.491.314q-.76.477-1.545.917a27.49 27.49 0 0 1-1.138.6c-.081.03-.7.326-.868.4a11.456 11.456 0 0 1-3.061 1.01c-1.528.217-2.252-.479-2.326-1.584a4.2 4.2 0 0 1 .363-2.121c-.176.517.284-.622.358-.782.275-.585.6-1.151.9-1.729l.042-.085c.015-.031.022-.033.043-.069.137-.223.274-.442.415-.663q.423-.665.874-1.317t.932-1.3c.161-.215.324-.427.489-.642.041-.053.263-.329.39-.488l.132-.153c.244-.272.482-.546.729-.816.371-.4.751-.8 1.141-1.192.179-.18.594-.563.7-.669.4-.344.794-.689 1.208-1.02.453-.36.928-.7 1.387-1.052l.023-.018c.286-.186.573-.37.864-.547.488-.294.986-.57 1.485-.846-.006 0 .222-.115.371-.195s.56-.255.621-.281a23.815 23.815 0 0 1 1.771-.67 5.839 5.839 0 0 1 1.312-.348c.559-.087 1.112-.19 1.671-.237.19-.017.382-.029.571-.039.087 0 .241 0 .318.007a4.908 4.908 0 0 1 3.853 1.861c1.358 1.888 4.392.745 6.224-.733 1.65-1.333 4.693-4.737 3.322-6.658a8.75 8.75 0 0 0-5.894-3.8 19.7 19.7 0 0 0-8.933 1.028 37.447 37.447 0 0 0-17.716 12.177c-2.271 2.933-6.022 7.321-6.5 7.849-.454.47-.959 1.03-1.171 1.254-.361.381-.739.749-1.1 1.128-.049.05-.187.182-.3.293a56.625 56.625 0 0 1-4.347 3.564 81.69 81.69 0 0 1-9.217 5.638 71.242 71.242 0 0 1-17.513 6.268 9.369 9.369 0 0 1-2.257.228 5.993 5.993 0 0 1-1.967-.389c3.78-2.266 7.521-4.581 11.136-7.053 4.9-3.354 9.932-6.977 13.633-11.394 2.111-2.521 4.428-5.714 4.386-8.664-.046-3.331-3.7-4.079-6.993-3.854-7.221.488-14.622 5.76-20.05 10.582-5.348 4.751-10.17 10.339-12.959 16.4-1.377 2.994-2.466 6.375-1.673 9.162a7.784 7.784 0 0 0 5.751 5.339c2.644.61 6.092-.061 8.987-.771a78.946 78.946 0 0 0 12.731-4.4 93.029 93.029 0 0 0 18.383-10.593.932.932 0 0 1 1.453.446 4.843 4.843 0 0 0 3.019 3.2c2.919 1.068 6.7-.054 9.805-1.391a49.621 49.621 0 0 0 12.847-8.206.931.931 0 0 1 1.264.022 19.2 19.2 0 0 0 2.513 2.069 15.152 15.152 0 0 0 4.4 2.169 13 13 0 0 0 4.807.124 29.842 29.842 0 0 0 17.171-8.314c.408-.388 1.1-1.138 1.691-1.8a.982.982 0 0 1 1.64.3 13.55 13.55 0 0 0 2.976 4.447c6.068 5.987 16 2.06 22.652-2.736 1.919-1.387 4.431-4.392 3.318-6.514zM157.125 94.444c2.755-3.825 6.5-8.685 11.094-11.766 4.181-3 8.756-3.708 8.826-2.155-.388 1.912-8.5 7.621-11.016 9.5-3.619 2.691-7.336 5.254-11.08 7.789a36.8 36.8 0 0 1 2.176-3.368z" style="fill:#fff" transform="translate(-82.347 -30.109)"/>
        <g data-name="Group 37">
            <path data-name="Path 137" d="M161.466 128.719a6.169 6.169 0 0 1 6.3-6.215 6.6 6.6 0 0 1 4.722 1.648l-1.666 2.009a4.427 4.427 0 0 0-3.142-1.219 3.805 3.805 0 0 0 .189 7.59 4.216 4.216 0 0 0 2.49-.721v-1.717H167.7v-2.284h5.221v5.219a7.8 7.8 0 0 1-5.135 1.907 6.024 6.024 0 0 1-6.32-6.217z" style="fill:#58dbc2" transform="translate(-82.347 -30.109)"/>
            <path data-name="Path 138" d="M175.456 122.71h5.5a4.789 4.789 0 0 1 3.5 1.219 3.8 3.8 0 0 1 1.031 2.782 3.732 3.732 0 0 1-2.576 3.725l2.936 4.294h-3.09l-2.611-3.847H178.1v3.847h-2.644zm5.323 5.838c1.287 0 2.026-.687 2.026-1.734 0-1.134-.79-1.717-2.078-1.717H178.1v3.451z" style="fill:#58dbc2" transform="translate(-82.347 -30.109)"/>
            <path data-name="Path 139" d="M187.333 128.719a6.39 6.39 0 1 1 6.371 6.217 6.215 6.215 0 0 1-6.371-6.217zm10.011 0a3.652 3.652 0 0 0-3.64-3.777 3.6 3.6 0 0 0-3.606 3.777 3.651 3.651 0 0 0 3.64 3.778 3.6 3.6 0 0 0 3.606-3.778z" style="fill:#58dbc2" transform="translate(-82.347 -30.109)"/>
            <path data-name="Path 140" d="M202.266 129.578v-6.868h2.644v6.8c0 1.958.978 2.971 2.593 2.971s2.593-.978 2.593-2.885v-6.886h2.644v6.782c0 3.641-2.044 5.426-5.272 5.426s-5.202-1.803-5.202-5.34z" style="fill:#58dbc2" transform="translate(-82.347 -30.109)"/>
            <path data-name="Path 141" d="M215.431 122.71h4.912c2.867 0 4.6 1.7 4.6 4.19 0 2.781-2.164 4.224-4.859 4.224h-2.009v3.606h-2.645zm4.74 6.061a1.866 1.866 0 0 0 2.094-1.855c0-1.185-.823-1.819-2.147-1.819h-2.042v3.674z" style="fill:#58dbc2" transform="translate(-82.347 -30.109)"/>
        </g>
        <path data-name="Path 142" d="M243.09 83.178c-.374.282-.437.411 0 0z" style="fill:#fff" transform="translate(-82.347 -30.109)"/>
        <g data-name="Group 38">
            <path data-name="Path 143" d="M278.423 59.057a6.474 6.474 0 0 0-6.743 6.418v.225a6.752 6.752 0 0 0 13.486-.037v-.185a6.474 6.474 0 0 0-6.743-6.421zm5.444 6.6a5.447 5.447 0 0 1-10.888.035v-.206a5.447 5.447 0 0 1 10.888 0z" style="fill:#fff" transform="translate(-82.347 -30.109)"/>
            <path data-name="Path 144" d="M281.752 64.332v-.037c0-1.549-1.264-2.25-3.076-2.25h-3.119v6.861h1.981v-2.14h.758l1.433 2.14h2.234l-1.686-2.506a2.114 2.114 0 0 0 1.475-2.068zm-3.2 1h-1.011V63.52h1.011c.759 0 1.18.295 1.18.923-.003.557-.424.885-1.183.885z" style="fill:#fff" transform="translate(-82.347 -30.109)"/>
        </g>
    </g>
</svg>
