<svg xmlns="http://www.w3.org/2000/svg" width="48" height="48" viewBox="0 0 48 48">
    <path data-name="Rectangle 5" style="fill:none" d="M0 0h48v48H0z"/>
    <g data-name="Group 8">
        <path data-name="Path 11" d="M934.993 359.782a15.993 15.993 0 0 0-11.386-4.716 1.275 1.275 0 1 0 0 2.551 13.549 13.549 0 0 1 13.55 13.551 1.276 1.276 0 0 0 2.552 0 15.993 15.993 0 0 0-4.716-11.386z" transform="translate(-897.713 -349.066)" style="fill:#fff"/>
        <path data-name="Path 12" d="M929.745 371.168a1.276 1.276 0 1 0 2.551 0 8.7 8.7 0 0 0-8.689-8.689 1.276 1.276 0 0 0 0 2.552 6.145 6.145 0 0 1 6.138 6.137z" transform="translate(-897.713 -349.066)" style="fill:#fff"/>
        <path data-name="Path 13" d="M926.921 377.673a3.853 3.853 0 0 0-3.41 2.041 1.276 1.276 0 1 0 2.106 1.44c.561-.82.816-.949 1.161-.933 1.1.13 5.453 3.317 5.888 4.313a1.312 1.312 0 0 1-.012.931 4.4 4.4 0 0 1-2.186 2.754 4.091 4.091 0 0 1-3.279-.111 36.037 36.037 0 0 1-11.828-7.7 36.058 36.058 0 0 1-7.687-11.813 4.1 4.1 0 0 1-.111-3.28 4.4 4.4 0 0 1 2.753-2.186 1.323 1.323 0 0 1 .929-.013c1 .437 4.187 4.786 4.315 5.878.019.358-.111.612-.932 1.172a1.276 1.276 0 0 0 1.44 2.107 3.85 3.85 0 0 0 2.041-3.414c-.111-2.038-4.076-7.436-5.971-8.133a3.858 3.858 0 0 0-2.635-.015 6.864 6.864 0 0 0-4.259 3.541 6.564 6.564 0 0 0 .067 5.3 38.583 38.583 0 0 0 8.249 12.659l.026.026a38.62 38.62 0 0 0 12.645 8.235 7.564 7.564 0 0 0 2.848.594 5.857 5.857 0 0 0 2.457-.527 6.868 6.868 0 0 0 3.541-4.261 3.853 3.853 0 0 0-.013-2.629c-.703-1.9-6.101-5.865-8.143-5.976z" transform="translate(-897.713 -349.066)" style="fill:#fff"/>
    </g>
</svg>
