<svg xmlns="http://www.w3.org/2000/svg" width="202" height="65" viewBox="0 0 202 65">
    <g data-name="RS logo">
        <path data-name="Rectangle 48" style="fill:none" d="M0 0h202v65H0z"/>
        <g data-name="Group 239">
            <path data-name="Path 617" d="M582.494 363.857v12.464h9.9v-15.03h29.937v-9.9h-39.837z" style="fill:#e45e39" transform="translate(-582.494 -351.394)"/>
            <path data-name="Path 618" d="M634.059 371.311v19.917h9.409V378.4h3.983l4.46 6.415 4.448 6.415h5.426c4.313 0 5.388-.036 5.3-.159-.074-.073-2.285-3.091-4.925-6.684l-4.912-6.683c-.085-.11.171-.294.9-.66a13.121 13.121 0 0 0 6.892-9.3 19.037 19.037 0 0 0 .134-5.413c-.953-6.171-5.009-9.837-11.889-10.753-1.063-.147-3.177-.183-10.276-.183h-8.957zm17.266-11.364c2.273.33 3.751 1.418 4.325 3.177a6.469 6.469 0 0 1-.073 3.58 5.39 5.39 0 0 1-2.248 2.456c-1.332.66-1.674.709-5.914.77l-3.947.061v-10.166h3.519c1.931 0 3.874.061 4.338.122z" style="fill:#e45e39" transform="translate(-582.494 -351.394)"/>
            <path data-name="Path 619" d="M674.749 371.311v19.917h25.66V382.8H684.28v-7.209h13.32v-8.554h-13.32v-7.209h16.129v-8.431h-25.66z" style="fill:#e45e39" transform="translate(-582.494 -351.394)"/>
            <path data-name="Path 620" d="M716.38 371.128c-4.485 10.863-8.2 19.831-8.236 19.929-.049.147.648.171 5.12.171h5.169l1.222-3.275 1.234-3.262 8.015-.037 8.016-.024.318.819c.171.464.721 1.918 1.222 3.25s.929 2.456.965 2.48 2.359.037 5.181.025l5.144-.037-8.211-19.856-8.211-19.856-4.4-.037-4.387-.024zm14.919-1.283c1.21 3.189 2.237 5.9 2.285 6.012.086.207-.183.219-4.643.219s-4.729-.012-4.668-.219c.049-.159 3.691-9.764 4.485-11.816.11-.281.159-.33.244-.184.049.098 1.088 2.798 2.298 5.988z" style="fill:#e45e39" transform="translate(-582.494 -351.394)"/>
            <path data-name="Path 621" d="M758.206 371.311v19.917h24.561V382.8h-15.152v-31.4h-9.409z" style="fill:#e45e39" transform="translate(-582.494 -351.394)"/>
            <path data-name="Path 622" d="M597.4 373.816v7.515h-14.906v9.9h24.927v-14.91h14.908V366.3H597.4z" style="fill:#e45e39" transform="translate(-582.494 -351.394)"/>
            <path data-name="Path 623" d="M612.431 386.279v4.949h9.9v-9.9h-9.9z" style="fill:#e45e39" transform="translate(-582.494 -351.394)"/>
            <path data-name="Path 624" d="M637.969 400.393c-2.676.427-4.3 2.114-4.3 4.472 0 2.114 1.308 3.372 4.362 4.142a11.478 11.478 0 0 0 1.418.306 8.088 8.088 0 0 1 1.21.317 3.194 3.194 0 0 1 1.6.892c.55.538.6.624.6 1.149 0 1.625-1.295 2.529-3.617 2.529a6.513 6.513 0 0 1-4.411-1.649c-.709-.611-.623-.648-1.295.574l-.452.806.537.477a8.475 8.475 0 0 0 2.784 1.592 9.833 9.833 0 0 0 4.534.232c2.456-.575 3.959-2.151 4.093-4.277a3.505 3.505 0 0 0-.623-2.468c-.709-1.051-1.845-1.65-4.24-2.212-2.322-.55-3.275-.88-3.727-1.271-1.173-1.026-.562-2.81 1.136-3.3a7.077 7.077 0 0 1 1.735-.159 5.368 5.368 0 0 1 3.739 1.332c.257.2.282.171.783-.721a2.623 2.623 0 0 0 .415-1.063 7.441 7.441 0 0 0-2.529-1.393 9.368 9.368 0 0 0-3.752-.307z" style="fill:#e45e39" transform="translate(-582.494 -351.394)"/>
            <path data-name="Path 625" d="M685.563 400.344c-.134.024-.55.11-.916.183a8.377 8.377 0 0 0-6.061 5.609 10.015 10.015 0 0 0 .037 4.582 8.421 8.421 0 0 0 3.225 4.289 8.132 8.132 0 0 0 8.028.586 9.18 9.18 0 0 0 1.161-.7l.342-.281-.452-.978c-.232-.525-.464-.99-.489-1.014s-.232.11-.452.318a4.942 4.942 0 0 1-3.959 1.234 4.06 4.06 0 0 1-2.285-.562 5.685 5.685 0 0 1-3.25-5.291 5.808 5.808 0 0 1 4.9-5.743 5.731 5.731 0 0 1 4.57 1.161l.489.4.44-.99.452-.99-.245-.268a7.581 7.581 0 0 0-2.639-1.308 9.738 9.738 0 0 0-2.896-.237z" style="fill:#e45e39" transform="translate(-582.494 -351.394)"/>
            <path data-name="Path 626" d="M706.116 408.078c-1.992 4.3-3.666 7.906-3.7 8.016-.073.171.061.184 1.1.159l1.185-.037.758-1.686.745-1.674 3.605.025 3.6.036.745 1.65.745 1.649 1.186.037 1.185.037-.232-.526c-.575-1.319-7.124-15.322-7.2-15.4s-1.731 3.426-3.722 7.714zm5-.2 1.234 2.713-2.5.036c-1.381.013-2.53.013-2.542-.012-.073-.073 2.444-5.572 2.517-5.511.03.042.604 1.288 1.288 2.779z" style="fill:#e45e39" transform="translate(-582.494 -351.394)"/>
            <path data-name="Path 627" d="M746.048 400.393c-2.371.427-3.812 1.71-4.216 3.751a3.934 3.934 0 0 0 .318 2.432 4.763 4.763 0 0 0 2.053 1.771 16.021 16.021 0 0 0 3.4.966 7.164 7.164 0 0 1 1.21.33c1.331.439 2.065 1.075 2.15 1.881.183 1.65-1.185 2.676-3.58 2.676a6.513 6.513 0 0 1-4.411-1.649c-.709-.623-.636-.648-1.308.562l-.452.818.587.514a8.692 8.692 0 0 0 2.847 1.588 10.424 10.424 0 0 0 4.435.2c2.444-.575 3.959-2.163 4.094-4.277a3.567 3.567 0 0 0-.587-2.432c-.708-1.124-2.126-1.784-5.352-2.517-1.674-.379-2.7-.818-3.006-1.283a2.024 2.024 0 0 1 1.247-2.932 6.444 6.444 0 0 1 4.2.158 6.661 6.661 0 0 1 1.112.672 5.47 5.47 0 0 0 .623.44 6.883 6.883 0 0 0 .978-1.967 7.448 7.448 0 0 0-2.53-1.393 9.315 9.315 0 0 0-3.812-.309z" style="fill:#e45e39" transform="translate(-582.494 -351.394)"/>
            <path data-name="Path 628" d="M775.5 400.442a5.063 5.063 0 0 0-3.727 2.578 3.339 3.339 0 0 0-.3 1.833c0 1.124.024 1.27.342 1.808.709 1.21 2.261 2.028 4.778 2.529 3.006.6 3.983 1.235 3.983 2.6a2.264 2.264 0 0 1-1.527 2.114 8.467 8.467 0 0 1-3.495.171 7.486 7.486 0 0 1-2.884-1.454l-.757-.611-.55.941-.538.941.514.464a8.373 8.373 0 0 0 2.813 1.644 6.2 6.2 0 0 0 2.688.342 6.282 6.282 0 0 0 2.518-.281 4.6 4.6 0 0 0 3.409-4.412c0-2.3-1.43-3.592-4.766-4.362-2.59-.586-3.421-.88-3.934-1.393a1.136 1.136 0 0 1-.465-1.124 1.854 1.854 0 0 1 1.283-1.869 3.247 3.247 0 0 1 1.955-.367 5.287 5.287 0 0 1 3.41.978c.892.61.83.635 1.417-.538l.379-.77-.281-.3a8.063 8.063 0 0 0-2.664-1.32 9.415 9.415 0 0 0-3.601-.142z" style="fill:#e45e39" transform="translate(-582.494 -351.394)"/>
            <path data-name="Path 629" d="M649.944 408.4v7.882h2.2v-5.5h2.016a20.344 20.344 0 0 0 2.651-.134 5.145 5.145 0 0 0 3.972-5.609 4.514 4.514 0 0 0-2.4-3.776c-1.186-.623-2-.745-5.414-.745h-3.03zm7.173-5.352c1.955 1.051 2.016 4.179.1 5.157-.575.305-.721.317-2.835.354l-2.236.049v-5.918l2.236.049c2.018.036 2.27.061 2.735.305z" style="fill:#e45e39" transform="translate(-582.494 -351.394)"/>
            <path data-name="Path 630" d="M665.462 408.4v7.882h8.92v-2.2h-6.72v-4.643h5.621v-2.2h-5.621v-4.521h6.72v-2.2h-8.92z" style="fill:#e45e39" transform="translate(-582.494 -351.394)"/>
            <path data-name="Path 631" d="M696.133 408.4v7.882h2.2v-15.767h-2.2z" style="fill:#e45e39" transform="translate(-582.494 -351.394)"/>
            <path data-name="Path 632" d="M721.3 408.4v7.882h8.554v-2.2H723.5v-13.567h-2.2z" style="fill:#e45e39" transform="translate(-582.494 -351.394)"/>
            <path data-name="Path 633" d="M734.256 408.4v7.882h2.2v-15.767h-2.2z" style="fill:#e45e39" transform="translate(-582.494 -351.394)"/>
            <path data-name="Path 634" d="M756.862 401.615v1.1h4.155v13.564h2.2v-13.565h4.154v-2.2h-10.509z" style="fill:#e45e39" transform="translate(-582.494 -351.394)"/>
        </g>
    </g>
</svg>
