<svg xmlns="http://www.w3.org/2000/svg" width="200" height="75" viewBox="0 0 200 75">
    <path data-name="Rectangle 94" transform="translate(0 1)" style="fill:none" d="M0 0h200v74H0z"/>
    <g data-name="Group 268">
        <path data-name="Path 641" d="M764.115 133.217a11.4 11.4 0 0 0 2.385-.84 5.852 5.852 0 0 1 2.548-.569 1.288 1.288 0 0 1 .246.027 1.164 1.164 0 0 0 .243.027 5.622 5.622 0 0 1 3.74 1.518 8.282 8.282 0 0 1 2.007 3.362 18.13 18.13 0 0 1 .814 4.338q.162 2.332.162 4.554a2.321 2.321 0 0 0 .841-.407 28.994 28.994 0 0 0 2.088-1.571c.325-.271.577-.48.759-.624l2.6-2.17q1.027-.865 2.413-2.276t2.358-2.441a6.742 6.742 0 0 0 1-1.274c.162-.306.6-.461 1.329-.461h.324a4.4 4.4 0 0 1 .163.895 1.632 1.632 0 0 1-.433.787 7.449 7.449 0 0 1-.489.7 2.947 2.947 0 0 1-.6.543q-.27.434-.434.677a2.646 2.646 0 0 1-.6.57 4.659 4.659 0 0 1-1.031 1.029l-4.556 4.23a12.576 12.576 0 0 1-1.191 1.058q-.6.459-1.248.948-1.464 1.085-2.2 1.546a5.175 5.175 0 0 0-1.03.786 1.549 1.549 0 0 0-.38.813c-.055.326-.171.886-.353 1.681a43.269 43.269 0 0 1-3.632 10.98 34.762 34.762 0 0 1-6.724 9.408 20.6 20.6 0 0 1-5.911 4.31 13.106 13.106 0 0 1-5.367 1.329 7.352 7.352 0 0 1-3.525-.813 5.584 5.584 0 0 1-2.3-2.223 6.349 6.349 0 0 1-.733-3.335 9.767 9.767 0 0 1 1.193-4.148 18.5 18.5 0 0 1 2.711-3.85 28.132 28.132 0 0 1 3.416-3.2q2.059-1.573 4.04-2.9t3.957-2.495q1.98-1.166 4.04-2.33T771 149c.831-.47 1.465-.813 1.9-1.03a1.657 1.657 0 0 0 .868-1.085v-.162a22.613 22.613 0 0 0 .272-3.768 18.385 18.385 0 0 0-.462-4.176 8.743 8.743 0 0 0-1.545-3.389 3.558 3.558 0 0 0-2.983-1.409 5.814 5.814 0 0 0-1.842.325 17.538 17.538 0 0 0-2.711 1.084 11.977 11.977 0 0 0-1.764 1.112q-.73.57-1.355 1.139a11.8 11.8 0 0 1-1.545 1.166 1.54 1.54 0 0 0-.243.189.53.53 0 0 1-.353.082.582.582 0 0 1-.191-.028.621.621 0 0 0-.189-.026c-.434-.073-.686-.245-.759-.516a1.532 1.532 0 0 1 .055-.9 3.639 3.639 0 0 1 .514-.976c.234-.324.425-.578.57-.759.18-.288.353-.541.515-.759s.334-.451.515-.705q2.169-3.144 4.337-6.1a69.982 69.982 0 0 0 4.122-6.317q.651-1.138 1.546-3.09a42.8 42.8 0 0 0 1.652-4.229 32.218 32.218 0 0 0 1.167-4.583 11.066 11.066 0 0 0 .026-4.147q-.378-1.952-1.573-1.953a3.849 3.849 0 0 0-2.331 1.085 22.439 22.439 0 0 0-2.547 2.521q-1.25 1.438-2.3 2.9t-1.545 2.223a70.79 70.79 0 0 0-3.715 6.833q-1.764 3.687-3.227 7.563t-2.683 7.809q-1.22 3.932-2.142 7.509-.543 2.115-1.084 4.094t-.976 4.2l-1.031 6.885a2.815 2.815 0 0 1-.325.923 2.127 2.127 0 0 1-.759.488q-1.029-.218-1.085-.787a9.221 9.221 0 0 1 .054-1.654l1.031-10.194q.6-6.939 1.545-13.582t1.654-13.474q.272-1.68.46-3.416a31.3 31.3 0 0 0 .191-3.417c0-.577.017-1.237.055-1.978a10.186 10.186 0 0 0-.055-1.871q-.162-.922-.3-1.6t-.353-1.438a2.1 2.1 0 0 0-1.518.976q-.6.868-1.031 1.627a39.162 39.162 0 0 0-3.9 7.618 38.059 38.059 0 0 0-2.224 8.377 28.9 28.9 0 0 0-.27 3.363 9.269 9.269 0 0 0 .38 3.2 1.575 1.575 0 0 0 .759.976 3.755 3.755 0 0 0 .84.216 1.019 1.019 0 0 1 .6.245c.126.127.136.46.027 1a5.991 5.991 0 0 1-1.356.163 2.167 2.167 0 0 1-1.382-.406 3.807 3.807 0 0 1-.949-1.22 8.256 8.256 0 0 1-.7-3.416 28.772 28.772 0 0 1 .218-3.579 27.892 27.892 0 0 1 1.057-5.368q.783-2.6 1.707-5.152l1.666-3.679q.27-.6.921-1.817a22.792 22.792 0 0 1 1.492-2.413 13.687 13.687 0 0 1 1.788-2.087 2.822 2.822 0 0 1 1.925-.895 2.034 2.034 0 0 1 1.628.921 5.285 5.285 0 0 1 1 1.98 13.7 13.7 0 0 1 .406 2.331 21.983 21.983 0 0 1 .081 2.467q-.026 1.248-.026 2.332a20.4 20.4 0 0 1-.136 2.495q-.135 1.083-.244 2.385-.108 2.44-.434 4.8t-.7 4.8l-.814 7q-.108.7-.217 1.219a5.712 5.712 0 0 0-.108 1.166 3 3 0 0 0 .542-1.193q.162-.705.325-1.247l.759-2.44q.378-1.247.814-2.413t.868-2.413q1.031-2.98 2.466-6.344a66.513 66.513 0 0 1 3.281-6.615 55.433 55.433 0 0 1 4.04-6.154 29.425 29.425 0 0 1 4.69-4.961 5.3 5.3 0 0 1 3.47-1.518 3 3 0 0 1 2.277 1.057 6.287 6.287 0 0 1 1.356 3.225 14.2 14.2 0 0 1-.082 4.853 29.427 29.427 0 0 1-1.41 5.124 46.566 46.566 0 0 1-2.2 4.989q-1.246 2.44-2.439 4.392c-.289.434-.7 1.022-1.219 1.762s-1.058 1.5-1.6 2.278-1.038 1.5-1.49 2.168a14.7 14.7 0 0 0-.895 1.43zm-10.248 41.643a7.845 7.845 0 0 0 2.439-.406 12.994 12.994 0 0 0 2.06-.841 19.19 19.19 0 0 0 4.15-2.792 24.679 24.679 0 0 0 3.361-3.633 36.19 36.19 0 0 0 2.711-4.175q1.219-2.2 2.25-4.473.27-.6.678-1.763t.814-2.44q.4-1.275.677-2.439a8.658 8.658 0 0 0 .27-1.818l-12.415 7.1-4.773 3.47q-.921.759-2.169 1.952a20.321 20.321 0 0 0-2.005 2.169 12.364 12.364 0 0 0-2.169 3.959 6 6 0 0 0-.191 3.2 3.632 3.632 0 0 0 1.492 2.141 4.846 4.846 0 0 0 2.82.789z" style="fill:#e45e39" transform="translate(-739.335 -101.932)"/>
        <path data-name="Path 642" d="M788.623 143.791a.563.563 0 0 1-.542-.434 3.138 3.138 0 0 1-.191-.948 6.294 6.294 0 0 1 .027-1c.037-.325.055-.543.055-.65q-.054-.977-.027-1.98t-.028-2.033q0-.378.028-1.464t.162-2.223a11.948 11.948 0 0 1 .406-2.034q.273-.894.706-.894 1.083 0 1.112.705a14.371 14.371 0 0 1-.083 1.843 7.24 7.24 0 0 0-.053.868v.867a2.839 2.839 0 0 1-.054.733 2.41 2.41 0 0 0-.055.678 6.441 6.441 0 0 0 1.086-1 2.194 2.194 0 0 1 1.735-.569q.378 0 1-.027t1.329-.028a17.119 17.119 0 0 1 2.222.136q1.03.137 1.031.678a.678.678 0 0 1-.57.732 6.075 6.075 0 0 1-1.382.135c-.362 0-.732-.008-1.112-.027s-.713-.026-1-.026c-.507 0-.922.008-1.248.026a2.5 2.5 0 0 0-.812.163 1.571 1.571 0 0 0-.57.406 5.618 5.618 0 0 0-.571.814 9.95 9.95 0 0 0-.758 1.518 8.543 8.543 0 0 0-.488 1.79 5.67 5.67 0 0 0-.109 1.111 9.9 9.9 0 0 1-.053 1.057 1.473 1.473 0 0 1-.3.786 1.106 1.106 0 0 1-.893.291z" style="fill:#e45e39" transform="translate(-739.335 -101.932)"/>
        <path data-name="Path 643" d="M796.754 135.495a5.223 5.223 0 0 1 .544-2.2 10.268 10.268 0 0 1 1.356-2.169 8.127 8.127 0 0 1 1.842-1.681 3.662 3.662 0 0 1 2.007-.678q1.789 0 1.871 1.356a4.4 4.4 0 0 1-1.167 2.928 10.206 10.206 0 0 1-1.952 1.654 5.335 5.335 0 0 1-2.548 1c0 .578.017 1.094.054 1.545a2.275 2.275 0 0 0 .759 1.382 2.421 2.421 0 0 0 1.79.706 4.332 4.332 0 0 0 1.463-.271 13.4 13.4 0 0 0 2.793-1.383 9.85 9.85 0 0 0 1-.732c.217-.181.388-.326.515-.434s.279-.235.461-.38a11.324 11.324 0 0 0 1.165-1.03c.235-.252.415-.451.542-.6a.812.812 0 0 1 .434-.271 4.42 4.42 0 0 1 .84-.055 3.181 3.181 0 0 1 .081.814 1.508 1.508 0 0 1-.406.65q-.759.761-1.789 1.682a19.915 19.915 0 0 1-2.251 1.735 15.3 15.3 0 0 1-2.494 1.355 6.387 6.387 0 0 1-2.52.542 4.284 4.284 0 0 1-3.146-1.3 3.523 3.523 0 0 1-1.112-2.006 16.683 16.683 0 0 1-.132-2.159zm2.441-1.3q.488-.27 1.112-.65a9.135 9.135 0 0 0 1.165-.84 4.958 4.958 0 0 0 .922-1.031 2.574 2.574 0 0 0 .434-1.22 3.137 3.137 0 0 0-1.138.516 5.958 5.958 0 0 0-1.084.948 7.71 7.71 0 0 0-.869 1.166 5.66 5.66 0 0 0-.537 1.109z" style="fill:#e45e39" transform="translate(-739.335 -101.932)"/>
        <path data-name="Path 644" d="M809.985 141.188a1.2 1.2 0 0 1-1.191-.921 6.561 6.561 0 0 1-.3-2.3 15.564 15.564 0 0 1 .379-3.009 21.633 21.633 0 0 1 .867-3.009 11.875 11.875 0 0 1 1.112-2.3q.6-.923 1.083-.922.922 0 .841.868a10.994 10.994 0 0 1-.514 2.223q-.436 1.354-.95 3.009a10.8 10.8 0 0 0-.515 3.227l2.6-3.959c.073-.144.225-.406.461-.786a10.861 10.861 0 0 1 .814-1.139 7.211 7.211 0 0 1 .976-1 1.577 1.577 0 0 1 1-.434c.435 0 .777.29 1.031.868l.325 3.036c0 .326.018.833.055 1.518a15.713 15.713 0 0 0 .243 2.061 5.953 5.953 0 0 0 .623 1.816 1.323 1.323 0 0 0 1.193.787 2.438 2.438 0 0 0 1.709-1 22.422 22.422 0 0 0 1.735-2.223q.84-1.22 1.518-2.223c.452-.668.8-1 1.057-1q.813 0 .733.623a4.34 4.34 0 0 1-.516 1.436 10.914 10.914 0 0 1-.976 1.519c-.361.471-.579.759-.651.868-.18.253-.425.56-.731.921s-.633.715-.976 1.057-.688.66-1.031.95a2.41 2.41 0 0 1-1 .542 3.61 3.61 0 0 1-1.031.162 2.393 2.393 0 0 1-1.979-.921 6.826 6.826 0 0 1-1.112-2.007 14.321 14.321 0 0 1-.515-2.25 13.754 13.754 0 0 1-.136-1.817v-1.409a2.529 2.529 0 0 0-.162-.976 5.045 5.045 0 0 0-1.382 1.762q-.734 1.329-1.518 2.739a28.447 28.447 0 0 1-1.573 2.521 2.113 2.113 0 0 1-1.596 1.092z" style="fill:#e45e39" transform="translate(-739.335 -101.932)"/>
        <path data-name="Path 645" d="M809.5 119.825c0-.4.318-.814.95-1.247a15.357 15.357 0 0 1 2.413-1.3q1.464-.649 3.253-1.247t3.525-1.112q1.735-.513 3.2-.894t2.222-.6a28.808 28.808 0 0 1 1.3-.3 1.948 1.948 0 0 0 .651-.217.7.7 0 0 0 .3-.433q.082-.3.244-1a8.97 8.97 0 0 1 1-3.063q.57-.84 1.11-.841a.865.865 0 0 1 .733.462 2.006 2.006 0 0 1 .3 1.111c0 .325-.019.46-.055.407s-.035.063 0 .352a1.517 1.517 0 0 0 .029.271 2.908 2.908 0 0 1 .026.434c0 .362-.055.569-.162.624a1.172 1.172 0 0 1-.38.107.653.653 0 0 0-.379.19 1.281 1.281 0 0 0-.163.814 7.109 7.109 0 0 0 1.437-.163q.784-.162 1.382-.27 2.387-.435 4.771-.787a33.353 33.353 0 0 1 4.881-.353 3.119 3.119 0 0 1 1.546.326 1.572 1.572 0 0 1 .73.731.726.726 0 0 1-.107.76 1.242 1.242 0 0 1-1.031.352c-.072-.288-.117-.424-.136-.406a1.732 1.732 0 0 1-.514-.082 4.482 4.482 0 0 0-.868-.054 25.16 25.16 0 0 0-3.036.244q-1.9.245-3.849.569t-3.552.624q-1.6.3-2.088.406l-1.085 11.117a3.931 3.931 0 0 0-.027.812c.018.291.027.579.027.868a1.911 1.911 0 0 1-.081.7 2.165 2.165 0 0 0-.082.759q0 1.194.055 2.739a16.116 16.116 0 0 1-.055 2.412q-.053.6-.107 2.658t-.055 4.472v4.636q0 2.223.055 3.092a11.018 11.018 0 0 0 .107 1.328c.073.559.117 1.111.136 1.654a4.733 4.733 0 0 1-.136 1.409.7.7 0 0 1-.7.6 1.08 1.08 0 0 1-.84-.326 1.934 1.934 0 0 1-.434-.813 4.806 4.806 0 0 1-.163-1.057 21.19 21.19 0 0 1-.028-1.057q-.108-1.464-.162-3.335t-.053-3.823q0-1.951.026-3.823t.027-3.335l.162-2.548v-2.359q0-1.6.055-3.307t.109-3.2a16.4 16.4 0 0 1 .163-2.088 8.505 8.505 0 0 0 .136-1.3q.025-.759.081-1.3l.487-5.043a6.194 6.194 0 0 1-.976.244q-.7.136-1.139.244-2.711.65-5.1 1.383t-4.933 1.708a8.292 8.292 0 0 0-.895.46 8.211 8.211 0 0 1-.9.461q-.488.219-.7.3a.489.489 0 0 0-.272.19 1.74 1.74 0 0 0-.108.3 5.142 5.142 0 0 1-.217.57 4.77 4.77 0 0 1-.921.108 1.873 1.873 0 0 1-.788-.162c-.237-.113-.352-.365-.352-.763z" style="fill:#e45e39" transform="translate(-739.335 -101.932)"/>
        <path data-name="Path 646" d="M872.5 133.543q.215-1.03.38-2.115t.325-2.169q.434-2.277 1.112-5.557t1.463-6.7q.786-3.417 1.627-6.588t1.545-5.286q.6-1.735.787-2.387a.807.807 0 0 1 .84-.65 2.9 2.9 0 0 1 .406.027c.127.019.281.045.461.082a6.952 6.952 0 0 1 .109 1.111 3.535 3.535 0 0 1-.136.948c-.09.326-.2.678-.324 1.058s-.263.841-.408 1.383q-.325 1.194-.814 3.307t-1.084 4.636q-.6 2.521-1.193 5.26t-1.112 5.26q-.513 2.52-.866 4.555t-.461 3.225a11.082 11.082 0 0 1 1.625-.379q1.2-.216 1.736-.325.434-.108 1.572-.326t2.6-.488q1.464-.271 3.009-.46a23.4 23.4 0 0 1 2.847-.19 6.609 6.609 0 0 1 2.06.271q.813.271.7.976a.6.6 0 0 1-.325.542 1.744 1.744 0 0 1-.651.108c-.18 0-.362-.009-.542-.027s-.362-.027-.542-.027h-.271a28.845 28.845 0 0 0-4.826.434q-2.55.434-4.716.759l-4.664.976-2.6 17.677a19.693 19.693 0 0 0-.325 2.656 3.527 3.527 0 0 0 .108 1.031 5.915 5.915 0 0 0 .245.623 4.328 4.328 0 0 1 .134 1.383v1.443a9.662 9.662 0 0 1-.053 1.057q-.055.489-.162 1.057a28.3 28.3 0 0 1-.327 1.437 4.355 4.355 0 0 1-.759 1.735 1.2 1.2 0 0 1-.866.488 1 1 0 0 1-.814-.406 1.4 1.4 0 0 1-.326-.895q0-2.279.136-3.768t.245-3.389l.081-1.545a2.838 2.838 0 0 0-.081-.923 1.677 1.677 0 0 0-.434-.677 18.342 18.342 0 0 0-1.031-.922 11.616 11.616 0 0 0-3.9-2.06 16.183 16.183 0 0 0-5.151-.814q-.651 0-2.25.027l-3.253.055q-1.655.027-2.983.108a3.71 3.71 0 0 0-1.492.244l-.7 7.049q-.108.921-.162 1.871t-.055 1.816l-.542 7.374q-.056 1.084-.081 1.817t-1.167.732a.857.857 0 0 1-.731-.488 1.856 1.856 0 0 1-.3-.976q0-3.092.134-5.829t.136-5.232a29.883 29.883 0 0 1 .3-3.742 34.429 34.429 0 0 0 .3-4.5 1.591 1.591 0 0 1-1.139-.434 1.408 1.408 0 0 1-.324-.949 2.423 2.423 0 0 1 .351-1.193 6.731 6.731 0 0 1 .9-1.22 1.938 1.938 0 0 0 .677-1.085q.027-.434.082-1.518.108-1.517.3-3.037a24.779 24.779 0 0 0 .191-3.09l.6-6.181q.865-6.56 1.871-13.013t2.3-12.96q.164-.813.243-1.22c.055-.271.1-.478.136-.623a.389.389 0 0 1 .162-.272c.073-.035.2-.108.38-.216l.109-.108a.368.368 0 0 1 .272-.109.87.87 0 0 1 .542.217 1.628 1.628 0 0 1 .461 1.3 16.838 16.838 0 0 1-.082 2.088q-.111 1.111-.3 2.087t-.243 1.3q-.383 2.061-.869 5.232t-.949 6.561q-.462 3.388-.841 6.561t-.541 5.286q-.217 2.332-.569 4.745a33.386 33.386 0 0 0-.353 4.853 11.692 11.692 0 0 0 1.924-1.139 51.087 51.087 0 0 1 4.637-2.6q2.98-1.518 7.157-3.172a65.041 65.041 0 0 1 9.372-2.849zm-2.495 18.544a17.551 17.551 0 0 1 .136-2.169q.135-1.086.3-2.169l1.682-12.254a6.387 6.387 0 0 0-1.871.352c-.741.236-1.366.407-1.871.515q-2.115.6-4.608 1.573t-4.99 2.142q-2.495 1.167-4.826 2.467a41.01 41.01 0 0 0-4.12 2.6 3.388 3.388 0 0 0-.624.57 2.268 2.268 0 0 0-.189.949 7.6 7.6 0 0 1-.055 1.084 5.846 5.846 0 0 0-.055.922 15.219 15.219 0 0 0 2.115-.162 15.3 15.3 0 0 1 2.169-.164q1.031-.054 2.033-.081t2.088-.027a31.669 31.669 0 0 1 5.993.569 13.442 13.442 0 0 1 5.556 2.521q.325.271.516.462a1.344 1.344 0 0 0 .624.3z" style="fill:#e45e39" transform="translate(-739.335 -101.932)"/>
        <path data-name="Path 647" d="M888.227 140.917a13.311 13.311 0 0 1 .46-2.819 25.855 25.855 0 0 1 1.248-3.8 18.578 18.578 0 0 1 1.762-3.334q.977-1.437 1.952-1.437a.767.767 0 0 1 .759.487 1.137 1.137 0 0 1 .109.814 1.524 1.524 0 0 1-.408.542 3.244 3.244 0 0 0-.513.6 1.959 1.959 0 0 0 .542.814 4.881 4.881 0 0 1 .84 1.247 6.558 6.558 0 0 1 .568 2.087 10.759 10.759 0 0 1-.27 3.389 8.884 8.884 0 0 1-1.9 4.23 3.619 3.619 0 0 1-2.549 1.409 2.22 2.22 0 0 1-1.844-1.057 5.431 5.431 0 0 1-.756-3.172zm2.711 1.844a2.6 2.6 0 0 0 1.462-1.461 9.675 9.675 0 0 0 .921-2.765 10.475 10.475 0 0 0 .136-2.875 2.421 2.421 0 0 0-.84-1.843q-.165.6-.6 1.708t-.842 2.413a13.4 13.4 0 0 0-.542 2.6 4.147 4.147 0 0 0 .305 2.223z" style="fill:#e45e39" transform="translate(-739.335 -101.932)"/>
        <path data-name="Path 648" d="M905.849 127.633a2.546 2.546 0 0 1 .19-1.03 8.737 8.737 0 0 0 .352-.976l1.138-6.128q.109-.432.272-1.274a14.077 14.077 0 0 1 .434-1.681 9.875 9.875 0 0 1 .623-1.518 1.359 1.359 0 0 1 .84-.787.378.378 0 0 0 .163-.026.239.239 0 0 1 .109-.028c.505 0 .786.29.84.868a7.225 7.225 0 0 1-.135 2.006 19.546 19.546 0 0 1-.569 2.25q-.354 1.113-.462 1.6a42.585 42.585 0 0 0-1.409 6.751q-.434 3.442-.542 6.913t-.028 6.941q.082 3.471.136 6.886a11.166 11.166 0 0 0 .189 2.223c.127.614.217 1.1.272 1.464a1.148 1.148 0 0 1-.082.786c-.107.163-.416.244-.921.244q-.6 0-.949-1.355a20.463 20.463 0 0 1-.516-3.444q-.162-2.088-.162-4.581t.054-4.772q.054-2.277.108-3.985a98.48 98.48 0 0 0 .055-2.251l-.3.3a2.284 2.284 0 0 0-.136.407l-1.9 4.61c-.182.433-.388.9-.623 1.409a8.9 8.9 0 0 1-.814 1.409 5.142 5.142 0 0 1-1.057 1.112 2.155 2.155 0 0 1-1.355.461 1.531 1.531 0 0 1-1.547-1.111 6.323 6.323 0 0 1-.243-2.766 17.628 17.628 0 0 1 .787-3.6 18.456 18.456 0 0 1 1.573-3.606 12.115 12.115 0 0 1 2.114-2.766 3.5 3.5 0 0 1 2.413-1.111c.288 0 .441.028.461.081s.228.075.627.075zm-6.181 12.417q0 .487.217.488.434 0 1.3-1.681t1.735-3.742q.868-2.06 1.518-3.876a11.548 11.548 0 0 0 .651-2.142 2.554 2.554 0 0 0-1.437.569 6.718 6.718 0 0 0-.949 1.057 12.992 12.992 0 0 0-2.223 4.257 16.435 16.435 0 0 0-.812 5.07z" style="fill:#e45e39" transform="translate(-739.335 -101.932)"/>
        <path data-name="Path 649" d="M909.7 139.4a7.871 7.871 0 0 1 .814-3.118 17.19 17.19 0 0 1 2.06-3.443 14.283 14.283 0 0 1 2.766-2.765 4.981 4.981 0 0 1 2.981-1.139 2.271 2.271 0 0 1 2.143 1.084 1.943 1.943 0 0 1-.081 2.169.993.993 0 0 1-.706-.325 3.362 3.362 0 0 1-.38-.6 3.362 3.362 0 0 0-.379-.6.783.783 0 0 0-.65-.271 3.687 3.687 0 0 0-2.386 1.111 14.258 14.258 0 0 0-2.306 2.684 17.8 17.8 0 0 0-1.735 3.254 7.872 7.872 0 0 0-.677 2.82 3.631 3.631 0 0 0 1.735-1.112q.759-.84 1.3-1.383.54-.6 1.22-1.518t1.165-1.627c.182-.288.415-.65.706-1.084a1.271 1.271 0 0 1 1.084-.651 1.018 1.018 0 0 1 .921.732 5.8 5.8 0 0 1 .434 1.735 19.273 19.273 0 0 1 .108 2.088v1.789a4.412 4.412 0 0 0 1.355-.84q.922-.732 1.981-1.6a22.4 22.4 0 0 1 2.114-1.545 3.516 3.516 0 0 1 1.762-.678.432.432 0 0 1 .434.353.878.878 0 0 1-.055.678c-.035.036-.3.243-.785.623s-1.057.813-1.709 1.3-1.3.985-1.952 1.492a16.51 16.51 0 0 0-1.463 1.247 5.377 5.377 0 0 1-.921.65 1.247 1.247 0 0 0-.6.976 26.942 26.942 0 0 0-.164 2.874 32.3 32.3 0 0 1-.244 3.714q-.243 2.086-.677 4.2t-1 4.013a20.241 20.241 0 0 1-1.22 3.2 12.4 12.4 0 0 1-3.281 4.365 5.388 5.388 0 0 1-3.117 1.274 3.171 3.171 0 0 1-2.494-1.112 4 4 0 0 1-.976-2.738 21.493 21.493 0 0 1 .108-2.3 10.426 10.426 0 0 1 .379-1.9q.273-.894.651-1.816t.976-2.061a37.839 37.839 0 0 1 3.659-6.019 63.775 63.775 0 0 1 4.528-5.368 3.42 3.42 0 0 0 .625-2.52q-.082-1.763-.082-3.444a3.662 3.662 0 0 0-1.221 1.328 10.25 10.25 0 0 1-1.707 1.98c-.4.4-.921.886-1.572 1.464a3.018 3.018 0 0 1-2.007.867 1.4 1.4 0 0 1-.922-.271 1.313 1.313 0 0 1-.434-.651 2.947 2.947 0 0 1-.108-.813zm.6 24.617a3.13 3.13 0 0 0 2.169-1.084 12.856 12.856 0 0 0 1.681-2.007 17.275 17.275 0 0 0 1.491-3.28 25.726 25.726 0 0 0 .9-3.47q.322-1.764.514-3.5t.407-3.416l.217-3.145a2.556 2.556 0 0 0-.732.57q-.461.46-.95 1.03t-.9 1.139q-.4.568-.568.785-.434.6-1.084 1.464t-1.3 1.871q-.651 1-1.246 1.98a13.833 13.833 0 0 0-.924 1.735c-.142.361-.414 1.047-.811 2.06a15.627 15.627 0 0 0-.869 3.145 6.9 6.9 0 0 0 .055 2.874q.318 1.248 1.945 1.248z" style="fill:#e45e39" transform="translate(-739.335 -101.932)"/>
        <path data-name="Path 650" d="M925.476 135.495a5.218 5.218 0 0 1 .542-2.2 10.429 10.429 0 0 1 1.356-2.169 8.115 8.115 0 0 1 1.844-1.681 3.656 3.656 0 0 1 2.005-.678q1.789 0 1.871 1.356a4.39 4.39 0 0 1-1.165 2.928 10.272 10.272 0 0 1-1.952 1.654 5.341 5.341 0 0 1-2.549 1c0 .578.018 1.094.055 1.545a2.26 2.26 0 0 0 .759 1.382 2.42 2.42 0 0 0 1.788.706 4.343 4.343 0 0 0 1.465-.271 13.229 13.229 0 0 0 1.463-.624 13.463 13.463 0 0 0 1.329-.759 9.7 9.7 0 0 0 1-.732c.217-.181.388-.326.515-.434s.281-.235.461-.38a11.623 11.623 0 0 0 1.167-1.03q.351-.378.542-.6a.8.8 0 0 1 .434-.271 4.405 4.405 0 0 1 .84-.055 3.283 3.283 0 0 1 .081.814 1.53 1.53 0 0 1-.406.65q-.762.761-1.79 1.682a19.989 19.989 0 0 1-2.25 1.735 15.384 15.384 0 0 1-2.494 1.355 6.4 6.4 0 0 1-2.522.542 4.28 4.28 0 0 1-3.144-1.3 3.523 3.523 0 0 1-1.112-2.006 16.346 16.346 0 0 1-.133-2.159zm2.44-1.3c.326-.18.7-.4 1.112-.65a9.291 9.291 0 0 0 1.166-.84 5.073 5.073 0 0 0 .922-1.031 2.574 2.574 0 0 0 .434-1.22 3.153 3.153 0 0 0-1.14.516 5.992 5.992 0 0 0-1.084.948 7.835 7.835 0 0 0-.867 1.166 5.619 5.619 0 0 0-.543 1.109z" style="fill:#e45e39" transform="translate(-739.335 -101.932)"/>
    </g>
</svg>
